<mxfile host="app.diagrams.net" agent="Mozilla/5.0 (Windows NT 10.0; Win64; x64) AppleWebKit/537.36 (KHTML, like Gecko) Chrome/130.0.0.0 Safari/537.36" version="24.7.17">
  <diagram name="Page-1" id="Ka25K-KbN1wYNjouy_Eg">
    <mxGraphModel dx="2605" dy="1627" grid="1" gridSize="10" guides="1" tooltips="1" connect="1" arrows="1" fold="1" page="1" pageScale="1" pageWidth="1169" pageHeight="827" math="0" shadow="0">
      <root>
        <mxCell id="0" />
        <mxCell id="1" parent="0" />
        <mxCell id="SF5nNSYBkdqllCLN0pOR-24" value="Apache Pulsar" style="swimlane;whiteSpace=wrap;html=1;" vertex="1" parent="1">
          <mxGeometry x="240" y="-720" width="200" height="550" as="geometry" />
        </mxCell>
        <mxCell id="SF5nNSYBkdqllCLN0pOR-25" value="Topic: Get Shareholders" style="rounded=0;whiteSpace=wrap;html=1;fillColor=#dae8fc;strokeColor=#6c8ebf;" vertex="1" parent="SF5nNSYBkdqllCLN0pOR-24">
          <mxGeometry x="20" y="40" width="160" height="80" as="geometry" />
        </mxCell>
        <mxCell id="SF5nNSYBkdqllCLN0pOR-29" value="POST&lt;br&gt;&lt;div&gt;/search_shareholders/{company_house_number}/{depth}&lt;/div&gt;" style="rounded=0;whiteSpace=wrap;html=1;" vertex="1" parent="1">
          <mxGeometry x="1100" y="-670" width="310" height="60" as="geometry" />
        </mxCell>
        <mxCell id="SF5nNSYBkdqllCLN0pOR-38" style="edgeStyle=orthogonalEdgeStyle;rounded=0;orthogonalLoop=1;jettySize=auto;html=1;entryX=1;entryY=0.5;entryDx=0;entryDy=0;" edge="1" parent="1" source="SF5nNSYBkdqllCLN0pOR-31" target="SF5nNSYBkdqllCLN0pOR-25">
          <mxGeometry relative="1" as="geometry" />
        </mxCell>
        <mxCell id="SF5nNSYBkdqllCLN0pOR-39" value="Sends UUID and company number" style="edgeLabel;html=1;align=center;verticalAlign=middle;resizable=0;points=[];" vertex="1" connectable="0" parent="SF5nNSYBkdqllCLN0pOR-38">
          <mxGeometry x="0.0688" y="-1" relative="1" as="geometry">
            <mxPoint as="offset" />
          </mxGeometry>
        </mxCell>
        <mxCell id="SF5nNSYBkdqllCLN0pOR-31" value="Producer" style="rounded=0;whiteSpace=wrap;html=1;fillColor=#d5e8d4;strokeColor=#82b366;" vertex="1" parent="1">
          <mxGeometry x="670" y="-670" width="120" height="60" as="geometry" />
        </mxCell>
        <mxCell id="SF5nNSYBkdqllCLN0pOR-35" style="edgeStyle=orthogonalEdgeStyle;rounded=0;orthogonalLoop=1;jettySize=auto;html=1;" edge="1" parent="1" source="SF5nNSYBkdqllCLN0pOR-34" target="SF5nNSYBkdqllCLN0pOR-25">
          <mxGeometry relative="1" as="geometry" />
        </mxCell>
        <mxCell id="SF5nNSYBkdqllCLN0pOR-36" value="Receives message" style="edgeLabel;html=1;align=center;verticalAlign=middle;resizable=0;points=[];" vertex="1" connectable="0" parent="SF5nNSYBkdqllCLN0pOR-35">
          <mxGeometry x="-0.1278" y="-3" relative="1" as="geometry">
            <mxPoint as="offset" />
          </mxGeometry>
        </mxCell>
        <mxCell id="SF5nNSYBkdqllCLN0pOR-67" style="edgeStyle=orthogonalEdgeStyle;rounded=0;orthogonalLoop=1;jettySize=auto;html=1;" edge="1" parent="1" source="SF5nNSYBkdqllCLN0pOR-34" target="SF5nNSYBkdqllCLN0pOR-41">
          <mxGeometry relative="1" as="geometry" />
        </mxCell>
        <mxCell id="SF5nNSYBkdqllCLN0pOR-34" value="Consumer" style="rounded=0;whiteSpace=wrap;html=1;fillColor=#ffe6cc;strokeColor=#d79b00;" vertex="1" parent="1">
          <mxGeometry x="-40" y="-670" width="120" height="60" as="geometry" />
        </mxCell>
        <mxCell id="SF5nNSYBkdqllCLN0pOR-73" style="edgeStyle=orthogonalEdgeStyle;rounded=0;orthogonalLoop=1;jettySize=auto;html=1;" edge="1" parent="1" source="SF5nNSYBkdqllCLN0pOR-41" target="SF5nNSYBkdqllCLN0pOR-68">
          <mxGeometry relative="1" as="geometry" />
        </mxCell>
        <mxCell id="SF5nNSYBkdqllCLN0pOR-41" value="Get all shareholders via Company House API" style="rounded=0;whiteSpace=wrap;html=1;" vertex="1" parent="1">
          <mxGeometry x="-40" y="-520" width="120" height="60" as="geometry" />
        </mxCell>
        <mxCell id="SF5nNSYBkdqllCLN0pOR-45" value="Postgres db" style="shape=datastore;whiteSpace=wrap;html=1;" vertex="1" parent="1">
          <mxGeometry x="285" y="-120" width="110" height="130" as="geometry" />
        </mxCell>
        <mxCell id="SF5nNSYBkdqllCLN0pOR-51" style="edgeStyle=orthogonalEdgeStyle;rounded=0;orthogonalLoop=1;jettySize=auto;html=1;entryX=0;entryY=0.5;entryDx=0;entryDy=0;" edge="1" parent="1" source="SF5nNSYBkdqllCLN0pOR-50" target="SF5nNSYBkdqllCLN0pOR-25">
          <mxGeometry relative="1" as="geometry">
            <Array as="points">
              <mxPoint x="210" y="-250" />
              <mxPoint x="210" y="-640" />
            </Array>
          </mxGeometry>
        </mxCell>
        <mxCell id="SF5nNSYBkdqllCLN0pOR-52" value="Sends all shareholder company numbers with UUID" style="edgeLabel;html=1;align=center;verticalAlign=middle;resizable=0;points=[];rotation=-90;" vertex="1" connectable="0" parent="SF5nNSYBkdqllCLN0pOR-51">
          <mxGeometry x="-0.7493" y="-3" relative="1" as="geometry">
            <mxPoint x="180" y="-133" as="offset" />
          </mxGeometry>
        </mxCell>
        <mxCell id="SF5nNSYBkdqllCLN0pOR-50" value="Producer" style="rounded=0;whiteSpace=wrap;html=1;fillColor=#d5e8d4;strokeColor=#82b366;" vertex="1" parent="1">
          <mxGeometry x="-40" y="-160" width="120" height="60" as="geometry" />
        </mxCell>
        <mxCell id="SF5nNSYBkdqllCLN0pOR-56" style="edgeStyle=orthogonalEdgeStyle;rounded=0;orthogonalLoop=1;jettySize=auto;html=1;entryX=0.5;entryY=0;entryDx=0;entryDy=0;" edge="1" parent="1" source="SF5nNSYBkdqllCLN0pOR-54" target="SF5nNSYBkdqllCLN0pOR-50">
          <mxGeometry relative="1" as="geometry" />
        </mxCell>
        <mxCell id="SF5nNSYBkdqllCLN0pOR-54" value="&lt;br&gt;&lt;span style=&quot;color: rgb(0, 0, 0); font-family: Helvetica; font-size: 12px; font-style: normal; font-variant-ligatures: normal; font-variant-caps: normal; font-weight: 400; letter-spacing: normal; orphans: 2; text-align: center; text-indent: 0px; text-transform: none; widows: 2; word-spacing: 0px; -webkit-text-stroke-width: 0px; white-space: normal; background-color: rgb(251, 251, 251); text-decoration-thickness: initial; text-decoration-style: initial; text-decoration-color: initial; display: inline !important; float: none;&quot;&gt;If max depth&lt;/span&gt;&lt;div&gt;&lt;span style=&quot;color: rgb(0, 0, 0); font-family: Helvetica; font-size: 12px; font-style: normal; font-variant-ligatures: normal; font-variant-caps: normal; font-weight: 400; letter-spacing: normal; orphans: 2; text-align: center; text-indent: 0px; text-transform: none; widows: 2; word-spacing: 0px; -webkit-text-stroke-width: 0px; white-space: normal; background-color: rgb(251, 251, 251); text-decoration-thickness: initial; text-decoration-style: initial; text-decoration-color: initial; display: inline !important; float: none;&quot;&gt;&amp;nbsp;not reached&lt;/span&gt;&lt;br&gt;&lt;br&gt;&lt;/div&gt;" style="shape=rhombus;html=1;dashed=0;whiteSpace=wrap;perimeter=rhombusPerimeter;" vertex="1" parent="1">
          <mxGeometry x="-50" y="-310" width="140" height="120" as="geometry" />
        </mxCell>
        <mxCell id="SF5nNSYBkdqllCLN0pOR-57" value="GET&lt;br&gt;&lt;div&gt;/shareholders/{company_id}&lt;/div&gt;" style="rounded=0;whiteSpace=wrap;html=1;" vertex="1" parent="1">
          <mxGeometry x="869" y="-85" width="250" height="60" as="geometry" />
        </mxCell>
        <mxCell id="SF5nNSYBkdqllCLN0pOR-59" value="" style="endArrow=classic;startArrow=classic;html=1;rounded=0;entryX=0;entryY=0.5;entryDx=0;entryDy=0;exitX=1;exitY=0.5;exitDx=0;exitDy=0;" edge="1" parent="1" source="SF5nNSYBkdqllCLN0pOR-45" target="SF5nNSYBkdqllCLN0pOR-57">
          <mxGeometry width="50" height="50" relative="1" as="geometry">
            <mxPoint x="520" y="-40" as="sourcePoint" />
            <mxPoint x="570" y="-90" as="targetPoint" />
          </mxGeometry>
        </mxCell>
        <mxCell id="SF5nNSYBkdqllCLN0pOR-64" style="edgeStyle=orthogonalEdgeStyle;rounded=0;orthogonalLoop=1;jettySize=auto;html=1;entryX=1;entryY=0.5;entryDx=0;entryDy=0;" edge="1" parent="1" source="SF5nNSYBkdqllCLN0pOR-60" target="SF5nNSYBkdqllCLN0pOR-45">
          <mxGeometry relative="1" as="geometry">
            <Array as="points">
              <mxPoint x="840" y="-640" />
              <mxPoint x="840" y="-55" />
            </Array>
          </mxGeometry>
        </mxCell>
        <mxCell id="SF5nNSYBkdqllCLN0pOR-65" style="edgeStyle=orthogonalEdgeStyle;rounded=0;orthogonalLoop=1;jettySize=auto;html=1;" edge="1" parent="1" source="SF5nNSYBkdqllCLN0pOR-60" target="SF5nNSYBkdqllCLN0pOR-31">
          <mxGeometry relative="1" as="geometry" />
        </mxCell>
        <mxCell id="SF5nNSYBkdqllCLN0pOR-60" value="Create UUID" style="rounded=0;whiteSpace=wrap;html=1;" vertex="1" parent="1">
          <mxGeometry x="910" y="-670" width="120" height="60" as="geometry" />
        </mxCell>
        <mxCell id="SF5nNSYBkdqllCLN0pOR-70" style="edgeStyle=orthogonalEdgeStyle;rounded=0;orthogonalLoop=1;jettySize=auto;html=1;entryX=0;entryY=0.5;entryDx=0;entryDy=0;" edge="1" parent="1" source="SF5nNSYBkdqllCLN0pOR-68" target="SF5nNSYBkdqllCLN0pOR-45">
          <mxGeometry relative="1" as="geometry">
            <Array as="points">
              <mxPoint x="-180" y="-55" />
            </Array>
          </mxGeometry>
        </mxCell>
        <mxCell id="SF5nNSYBkdqllCLN0pOR-72" style="edgeStyle=orthogonalEdgeStyle;rounded=0;orthogonalLoop=1;jettySize=auto;html=1;entryX=0.5;entryY=0;entryDx=0;entryDy=0;" edge="1" parent="1" source="SF5nNSYBkdqllCLN0pOR-68" target="SF5nNSYBkdqllCLN0pOR-54">
          <mxGeometry relative="1" as="geometry" />
        </mxCell>
        <mxCell id="SF5nNSYBkdqllCLN0pOR-68" value="For each shareholder, create UUID and store in db" style="rounded=0;whiteSpace=wrap;html=1;" vertex="1" parent="1">
          <mxGeometry x="-40" y="-420" width="120" height="60" as="geometry" />
        </mxCell>
        <mxCell id="SF5nNSYBkdqllCLN0pOR-74" value="" style="endArrow=classic;startArrow=classic;html=1;rounded=0;exitX=1;exitY=0.5;exitDx=0;exitDy=0;entryX=0;entryY=0.5;entryDx=0;entryDy=0;" edge="1" parent="1" source="SF5nNSYBkdqllCLN0pOR-60" target="SF5nNSYBkdqllCLN0pOR-29">
          <mxGeometry width="50" height="50" relative="1" as="geometry">
            <mxPoint x="1090" y="-490" as="sourcePoint" />
            <mxPoint x="1140" y="-540" as="targetPoint" />
          </mxGeometry>
        </mxCell>
      </root>
    </mxGraphModel>
  </diagram>
</mxfile>
